<?xml version="1.0" encoding="utf-8"?>
<!-- Generator: Adobe Illustrator 17.1.0, SVG Export Plug-In . SVG Version: 6.00 Build 0)  -->
<!DOCTYPE svg PUBLIC "-//W3C//DTD SVG 1.1//EN" "http://www.w3.org/Graphics/SVG/1.1/DTD/svg11.dtd">
<svg version="1.1" xmlns="http://www.w3.org/2000/svg" xmlns:xlink="http://www.w3.org/1999/xlink" x="0px" y="0px"
	 viewBox="0 0 226 56.25" enable-background="new 0 0 226 56.25" xml:space="preserve">
<g id="Background">
</g>
<g id="Top_Nav">
	<g>
		<g>
			<polygon fill="#66CC00" points="53.364,2.321 39.803,43.719 34.092,24.506 24.906,24.506 35.463,54.833 45.245,54.833 
				63.695,2.321 			"/>
			<polygon fill="#66CC00" points="18.405,43.718 11.921,24.505 2.622,24.505 13.173,54.835 23.869,54.835 28.225,41.881 
				23.515,28.379 			"/>
			<polygon fill="#66CC00" points="130.033,38.189 144.914,24.498 132.516,24.498 122.971,33.474 122.971,10.823 114.205,10.823 
				114.205,54.833 122.971,54.833 122.971,42.698 134.817,54.833 146.676,54.833 			"/>
			<path fill="#66CC00" d="M111.139,33.547c-0.554-0.308-2.793-0.738-4.515-0.738c-2.215,0-3.814,1.231-4.552,2.215
				c-0.738,0.984-1.538,2.953-1.538,6.337v13.473h-9.2v-30.33h9.2l-0.062,4.307h0.123c1.722-3.322,4.245-4.86,7.505-4.86
				c2.03,0,3.039,0.554,3.039,0.554V33.547z"/>
			<path fill="#66CC00" d="M158.007,54.782h-9.815V24.54h9.815V54.782z"/>
			<path fill="#66CC00" d="M194.657,24.54l-12.453,30.242h-9.201L160.611,24.54h10.244l6.87,19.139l6.809-19.139H194.657z"/>
			<path fill="#66CC00" d="M223.929,54.782h-9.385l-0.184-3.19c-1.288,1.288-3.742,3.865-8.649,3.865
				c-5.337,0-10.98-2.883-10.98-9.631s6.196-9.017,11.778-9.263l7.606-0.307v-0.675c0-3.19-2.27-4.846-6.196-4.846
				c-3.865,0-7.729,1.718-9.263,2.699l-2.577-6.38c2.577-1.288,7.3-3.067,12.943-3.067c5.644,0,8.895,1.288,11.287,3.497
				c2.331,2.208,3.619,5.153,3.619,10.244V54.782z M214.175,41.471l-4.846,0.307c-3.006,0.123-4.785,1.411-4.785,3.681
				c0,2.331,1.902,3.742,4.601,3.742c2.638,0,4.417-1.718,5.03-2.76V41.471z"/>
			<g>
				<path fill="#66CC00" d="M71.629,55.63c-9.645,0-16.94-5.997-16.94-15.828c0-9.83,7.295-15.889,16.94-15.889
					c9.645,0,16.879,6.059,16.879,15.889C88.507,49.633,81.274,55.63,71.629,55.63z M71.629,31.703c-4.39,0-6.925,3.4-6.925,7.914
					s2.535,7.914,6.925,7.914c4.328,0,6.924-3.4,6.924-7.914S75.957,31.703,71.629,31.703z"/>
			</g>
		</g>
		<polygon fill="#66CC00" points="148.253,21.212 148.253,10.932 159.405,10.932 		"/>
	</g>
</g>
<g id="Hero_Image">
</g>
<g id="Hero_Text">
</g>
<g id="Roll_Over_Top_Nav" display="none">
</g>
</svg>
